<?xml version="1.0" encoding="UTF-8" standalone="no"?>
<!-- Generator: Adobe Illustrator 18.0.0, SVG Export Plug-In . SVG Version: 6.00 Build 0)  -->

<svg
   version="1.1"
   id="Capa_1"
   x="0px"
   y="0px"
   viewBox="0 0 422.932 422.932"
   style="enable-background:new 0 0 422.932 422.932;"
   xml:space="preserve"
   sodipodi:docname="logo.svg"
   inkscape:version="1.1.1 (3bf5ae0d25, 2021-09-20)"
   xmlns:inkscape="http://www.inkscape.org/namespaces/inkscape"
   xmlns:sodipodi="http://sodipodi.sourceforge.net/DTD/sodipodi-0.dtd"
   xmlns="http://www.w3.org/2000/svg"
   xmlns:svg="http://www.w3.org/2000/svg"><defs
   id="defs53" /><sodipodi:namedview
   id="namedview51"
   pagecolor="#ffffff"
   bordercolor="#666666"
   borderopacity="1.0"
   inkscape:pageshadow="2"
   inkscape:pageopacity="0.0"
   inkscape:pagecheckerboard="true"
   showgrid="false"
   inkscape:zoom="1.3910341"
   inkscape:cx="307.32532"
   inkscape:cy="329.6109"
   inkscape:window-width="1920"
   inkscape:window-height="1017"
   inkscape:window-x="-8"
   inkscape:window-y="-8"
   inkscape:window-maximized="1"
   inkscape:current-layer="Capa_1" />

<g
   inkscape:groupmode="layer"
   id="layer2"
   inkscape:label="back 1" /><g
   id="g20">
</g>
<g
   id="g22">
</g>
<g
   id="g24">
</g>
<g
   id="g26">
</g>
<g
   id="g28">
</g>
<g
   id="g30">
</g>
<g
   id="g32">
</g>
<g
   id="g34">
</g>
<g
   id="g36">
</g>
<g
   id="g38">
</g>
<g
   id="g40">
</g>
<g
   id="g42">
</g>
<g
   id="g44">
</g>
<g
   id="g46">
</g>
<g
   id="g48">
</g>
<g
   id="g242"><rect
     style="enable-background:new 0 0 422.932 422.932;fill:#ffffff;stroke:#ffffff;stroke-width:2.29309"
     id="rect58"
     width="451.3125"
     height="447.99472"
     x="-17.964855"
     y="-4.4820008" /><g
     id="g1056"><g
       id="g18">
	<path
   style="fill:none;"
   d="M160.986,108.586c-3.877,6.396-41.223,54.328-41.795,54.953c-2.273,2.482-5.484,3.896-8.85,3.896   c-3.367,0-6.578-1.414-8.85-3.896c-0.572-0.625-37.92-48.557-41.797-54.953H35.92v181.195l181.195-181.195H160.986z"
   id="path2" />
	<polygon
   style="fill:none;"
   points="52.891,398.932 276.276,398.932 164.584,287.24  "
   id="polygon4" />
	<path
   style="fill:none;"
   d="M202.432,232.902c-7.434-8.053-1.971-15.576-0.238-17.189   c-0.006-0.002,107.104-107.127,107.104-107.127h-58.24L35.92,323.723v58.238L156.1,261.783c4.686-4.686,12.283-4.686,16.971,0   l137.146,137.148h58.238L202.429,232.906C202.43,232.904,202.431,232.902,202.432,232.902z"
   id="path6" />
	<path
   style="fill:none;"
   d="M296.389,155.434l60.26,60.26c4.688,4.688,4.688,12.285,0,16.971l-60.26,60.262l90.633,90.631V108.586   h-43.783L296.389,155.434z"
   id="path8" />
	<path
   style="fill:#73D0F4;"
   d="M152.584,66.244c0-23.293-18.949-42.244-42.242-42.244C87.049,24,68.1,42.951,68.1,66.244   c0,15.094,22.445,47.521,42.242,70.992C130.139,113.766,152.584,81.338,152.584,66.244z"
   id="path10" />
	
		<rect
   x="242.809"
   y="187.569"
   transform="matrix(0.7071 0.7071 -0.7071 0.7071 240.3658 -131.9192)"
   style="fill:#73D0F4;"
   width="73.22"
   height="73.221"
   id="rect12" />
	
		<line
   style="fill:none;stroke:#3D6889;stroke-width:0;stroke-linecap:round;stroke-linejoin:round;"
   x1="23.559"
   y1="422.932"
   x2="23.555"
   y2="422.932"
   id="line14" />
	<path
   style="fill:#3D6889;"
   d="M399.022,84.586H172.899c2.461-6.824,3.686-12.924,3.686-18.342C176.584,29.717,146.867,0,110.342,0   C73.815,0,44.1,29.717,44.1,66.244c0,5.418,1.225,11.518,3.686,18.342H23.92c-6.627,0-12,5.373-12,12v313.689   c0,0-0.791,12.045,11.639,12.656c0.684,0,375.463,0,375.463,0c6.629,0,12-5.373,12-12V96.586   C411.022,89.959,405.651,84.586,399.022,84.586z M110.342,24c23.293,0,42.242,18.951,42.242,42.244   c0,15.094-22.445,47.521-42.242,70.992C90.545,113.766,68.1,81.338,68.1,66.244C68.1,42.951,87.049,24,110.342,24z M35.92,108.586   h23.775c3.877,6.396,41.225,54.328,41.797,54.953c2.271,2.482,5.482,3.896,8.85,3.896c3.365,0,6.576-1.414,8.85-3.896   c0.572-0.625,37.918-48.557,41.795-54.953h56.129L35.92,289.781V108.586z M52.891,398.932L164.584,287.24l111.691,111.691H52.891z    M310.217,398.932L173.07,261.783c-4.688-4.686-12.285-4.686-16.971,0L35.92,381.961v-58.238l215.137-215.137h58.24   c0,0-107.109,107.125-107.104,107.127c-1.732,1.613-7.195,9.137,0.238,17.189c-0.001,0-0.002,0.002-0.003,0.004l166.026,166.025   H310.217z M279.42,172.404l51.773,51.775l-51.773,51.773l-51.775-51.773L279.42,172.404z M387.022,383.557l-90.633-90.631   l60.26-60.262c4.688-4.686,4.688-12.283,0-16.971l-60.26-60.26l46.85-46.848h43.783V383.557z"
   id="path16" />
</g><path
       style="fill:#ff0000;stroke-width:0.525886"
       d="M 104.38399,130.11668 C 85.760078,107.8627 72.612497,87.978168 67.72528,74.673686 c -1.301396,-3.542792 -1.48579,-4.795057 -1.466242,-9.957572 0.02532,-6.686252 0.881586,-10.415211 3.754319,-16.349698 5.350109,-11.052246 15.385405,-19.37136 27.970772,-23.18736 5.082391,-1.541028 15.603431,-1.970707 21.077311,-0.860798 13.70776,2.779447 24.90251,11.09802 31.35476,23.299022 2.97424,5.624189 4.09757,10.399614 4.08258,17.355579 -0.0124,5.735553 -0.13949,6.481411 -1.83734,10.779882 -3.84805,9.74222 -11.74735,22.791919 -22.38174,36.974789 -5.16477,6.88816 -14.21824,18.09966 -18.39586,22.7808 L 110.342,137.236 Z"
       id="path92" /><path
       style="fill:#ff0000;stroke:#ff0000;stroke-width:0.254166"
       d="m 107.13708,166.84787 c -1.64658,-0.45925 -3.25422,-1.36107 -4.61027,-2.58617 -2.10967,-1.90597 -37.070678,-47.38516 -41.606864,-54.12449 -0.580729,-0.86278 -0.960728,-1.60622 -0.844442,-1.65208 C 60.371683,108.36832 48.760123,84.849989 48.175741,84.383069 47.564008,83.894292 46.052497,79.103741 45.208554,74.978932 42.702839,62.732119 45.45473,47.100115 52.300463,34.693641 61.90284,17.291319 78.245283,5.2802032 97.599694,1.4003155 c 7.909346,-1.58555037 16.969886,-1.62161957 25.035336,-0.099664 17.82799,3.3641523 33.68617,14.1847965 43.62461,29.7667535 5.06639,7.94332 8.52189,17.707876 9.78303,27.644911 0.40981,3.22907 0.40872,10.808397 -0.002,13.343708 -0.74215,4.582008 -2.90497,12.327045 -3.44236,12.327045 -0.3825,0 -12.21575,23.740941 -12.00401,24.083531 0.35857,0.58019 -12.06952,17.14253 -33.80442,45.04959 -5.24913,6.73973 -8.62901,10.85672 -9.36167,11.40331 -2.74054,2.04454 -7.00782,2.84414 -10.29121,1.92837 z m 7.17598,-34.1904 c 18.66054,-22.80985 32.47113,-44.66598 36.86933,-58.348052 1.26568,-3.937319 1.54613,-6.060598 1.36512,-10.335538 -0.76977,-18.180663 -13.55014,-33.904906 -31.43747,-38.678901 -11.92783,-3.183448 -25.171739,-0.77697 -35.326006,6.418895 -3.089847,2.189634 -7.782747,6.882535 -9.972381,9.972381 -4.877177,6.882309 -7.817568,15.962181 -7.818277,24.142705 -8.39e-4,9.628207 7.851379,25.455866 23.536959,47.4433 6.395121,8.96443 18.242265,24.00628 18.826715,23.90354 0.16677,-0.0293 1.94698,-2.06257 3.95601,-4.51833 z"
       id="path686" /></g></g><g
   inkscape:groupmode="layer"
   id="layer1"
   inkscape:label="back" /></svg>
